<svg width="24" height="25" viewBox="0 0 24 25" fill="none" xmlns="http://www.w3.org/2000/svg">
<path d="M12.3659 9.48781C11.6059 9.48781 10.9756 10.118 10.9756 10.878V20.6098C10.9756 21.3698 11.6059 22 12.3659 22C13.1259 22 13.7561 21.3698 13.7561 20.6098V10.878C13.7561 10.118 13.1259 9.48781 12.3659 9.48781Z" fill="#0D062D"/>
<path d="M12.3659 3C11.8654 3 11.402 3.18537 11.0498 3.53756C10.8829 3.72293 10.7532 3.92683 10.642 4.14927C10.5493 4.37171 10.5122 4.61268 10.5122 4.85366C10.5122 5.33561 10.7161 5.81756 11.0498 6.16975C11.7356 6.85561 12.9961 6.85561 13.682 6.16975C14.0156 5.81756 14.2195 5.33561 14.2195 4.85366C14.2195 4.61268 14.1639 4.37171 14.0712 4.14927C13.9785 3.92683 13.8488 3.72293 13.682 3.53756C13.3298 3.18537 12.8664 3 12.3659 3Z" fill="#0D062D"/>
</svg>
