<svg width="24" height="25" viewBox="0 0 24 25" fill="none" xmlns="http://www.w3.org/2000/svg">
<path d="M12.3659 15.5122C11.6059 15.5122 10.9756 14.882 10.9756 14.122V4.39024C10.9756 3.63024 11.6059 3 12.3659 3C13.1259 3 13.7561 3.63024 13.7561 4.39024V14.122C13.7561 14.882 13.1259 15.5122 12.3659 15.5122Z" fill="#0D062D"/>
<path d="M12.3659 22C11.8654 22 11.402 21.8146 11.0498 21.4624C10.8829 21.2771 10.7532 21.0732 10.642 20.8507C10.5493 20.6283 10.5122 20.3873 10.5122 20.1463C10.5122 19.6644 10.7161 19.1824 11.0498 18.8302C11.7356 18.1444 12.9961 18.1444 13.682 18.8302C14.0156 19.1824 14.2195 19.6644 14.2195 20.1463C14.2195 20.3873 14.1639 20.6283 14.0712 20.8507C13.9785 21.0732 13.8488 21.2771 13.682 21.4624C13.3298 21.8146 12.8664 22 12.3659 22Z" fill="#0D062D"/>
</svg>
